inDegrees=no
num_controls=7
num_derivatives=13
num_iterations=135
num_multipliers=7
num_parameters=0
num_slacks=7
num_states=26
objective=6.300198
objective_accelerations=0.628181
objective_balance=0.020307
objective_effort=0.528820
objective_height=5.074684
objective_ligament=0.048205
solver_duration=1173.654763
status=Solve_Succeeded
success=true
DataType=double
version=3
OpenSimVersion=4.4-2022-07-23-0e9fedc
endheader
time	/jointset/ground_pelvis/pelvis_tilt/value	/jointset/ground_pelvis/pelvis_tx/value	/jointset/ground_pelvis/pelvis_ty/value	/jointset/hip_r/hip_flexion_r/value	/jointset/hip_r/hip_adduction_r/value	/jointset/hip_r/hip_rotation_r/value	/jointset/back/lumbar_extension/value	/jointset/patellofemoral_r/patellar_flexion_r/value	/jointset/knee_r/knee_flexion_r/value	/jointset/knee_r/knee_adduction_r/value	/jointset/knee_r/knee_rotation_r/value	/jointset/ankle_r/ankle_angle_r/value	/jointset/subtalar_r/subtalar_angle_r/value	/jointset/ground_pelvis/pelvis_tilt/speed	/jointset/ground_pelvis/pelvis_tx/speed	/jointset/ground_pelvis/pelvis_ty/speed	/jointset/hip_r/hip_flexion_r/speed	/jointset/hip_r/hip_adduction_r/speed	/jointset/hip_r/hip_rotation_r/speed	/jointset/back/lumbar_extension/speed	/jointset/patellofemoral_r/patellar_flexion_r/speed	/jointset/knee_r/knee_flexion_r/speed	/jointset/knee_r/knee_adduction_r/speed	/jointset/knee_r/knee_rotation_r/speed	/jointset/ankle_r/ankle_angle_r/speed	/jointset/subtalar_r/subtalar_angle_r/speed	/forceset/tau_hip_flexion_r	/forceset/tau_hip_adduction_r	/forceset/tau_hip_rotation_r	/forceset/tau_knee_flexion_r	/forceset/tau_ankle_angle_r	/forceset/tau_subtalar_angle_r	/forceset/tau_lumbar_extension	lambda_cid13_p0	lambda_cid14_p0	lambda_cid14_p1	lambda_cid14_p2	lambda_cid14_p3	lambda_cid14_p4	lambda_cid14_p5	/jointset/ground_pelvis/pelvis_tilt/accel	/jointset/ground_pelvis/pelvis_tx/accel	/jointset/ground_pelvis/pelvis_ty/accel	/jointset/hip_r/hip_flexion_r/accel	/jointset/hip_r/hip_adduction_r/accel	/jointset/hip_r/hip_rotation_r/accel	/jointset/back/lumbar_extension/accel	/jointset/patellofemoral_r/patellar_flexion_r/accel	/jointset/knee_r/knee_flexion_r/accel	/jointset/knee_r/knee_adduction_r/accel	/jointset/knee_r/knee_rotation_r/accel	/jointset/ankle_r/ankle_angle_r/accel	/jointset/subtalar_r/subtalar_angle_r/accel	gamma_cid13_p0	gamma_cid14_p0	gamma_cid14_p1	gamma_cid14_p2	gamma_cid14_p3	gamma_cid14_p4	gamma_cid14_p5
1.5	-0.1791535759313794	0.02299644522127672	0.8351501166759224	0.8700711925566941	-0.2417116607461212	-0.09962680282726415	-0.2994075055085213	0.7724291920361019	0.772429192036014	0.06263782568184888	0.1745246824981545	0.2502992405037508	0.03688641744870306	0.410477099343577	0.1885002495783345	0.4760012372469379	-1.992554791819926	0.03032145386665448	-0.4259780583527062	0.6982907140864966	-2.087696747362951	-2.087696747363453	0.1969074474934905	2.337410206675479e-05	-0.5986949284339715	-0.1137272124613099	-0.111503483412218	-0.02696849111831753	0.01302479170925876	-0.3474615222568809	0.09544665774768407	-0.009894707220879649	0.1541410707021852	-27.07186957896821	-10.40541475424334	-2.095358388216984	-3.802151107187006	-3.019727994023968	-651.1411626742191	61.36914739440841	0.2973700374515758	0.5248705536209576	-0.6097288789190289	-1.057882589411386	0.14379297040541	-0.3801495191567807	1.551481308352485	-1.183484993647367	-1.183484993647406	0.4862459653122347	-0.02736817172531696	-0.5094414706746165	0.1142262269089096	1.77333287712752e-07	1.323333330719304e-07	-1.534817409833251e-06	9.364342258094155e-07	8.863969531991987e-08	2.436013784525695e-07	-1.019554558618084e-06
1.51	-0.1750343313325319	0.02490743737150964	0.8398786337335546	0.8500949933910715	-0.2414021092950809	-0.1039058484262253	-0.2923483476258715	0.7514957737664368	0.7514957737661604	0.06463257041063873	0.1745250234281538	0.2442873698981824	0.0357538324649493	0.4133067476368387	0.1936684902720535	0.469598973994015	-2.00240142860697	0.03158782029745552	-0.4298027865199742	0.7134314588774852	-2.098683137591589	-2.098683137592011	0.2020380721849289	4.152802601681752e-05	-0.6035862645143039	-0.1127713925513341	-0.1045473733368494	-0.02856399087634305	0.01247077009500261	-0.3434260105947147	0.09836314589194016	-0.01104515553875209	0.1478294815674434	-28.33599420488931	-9.269885522255448	-2.298953356783402	-3.880742941821833	-3.372579230174375	-646.5118585136119	61.07194288679743	0.2660146197371712	0.5083660517356915	-0.670898775070655	-0.9054947862775228	0.1179094917797717	-0.379131339520251	1.478960529642593	-1.010689067515484	-1.010689067503591	0.5257458311293536	0.01608949641346317	-0.4650016532475389	0.08886857980043955	1.869370181570327e-07	1.39456570779086e-07	-1.640764381406654e-06	9.749322182864974e-07	9.202548870203797e-08	2.686679731548021e-07	-1.090121079788068e-06
1.52	-0.1708887397718512	0.02686922497357779	0.8445400434133394	0.830028839744997	-0.2410799239772635	-0.1082222406816596	-0.2851410644022767	0.7304615969884681	0.7304615969880146	0.06667847640834612	0.1745254823617857	0.2382293815365039	0.03463132742164694	0.4157464917090248	0.1986593399453807	0.4625797616774521	-2.010545687911077	0.0328482272227556	-0.4334473896475816	0.7279157822752779	-2.107848449021966	-2.10784844902231	0.2071397012791612	4.697482829791389e-05	-0.6079184796560381	-0.1117112243710192	-0.09759126326148349	-0.03015949063438043	0.01191674848080118	-0.3393904989325507	0.1012796340361916	-0.01219560385664218	0.1415178924327013	-29.58246400824325	-8.137997433133428	-2.498396231152971	-3.965468108733874	-3.73993116336782	-641.9531026078412	60.84520863155406	0.2193891932364847	0.4893923495425812	-0.7331186916470405	-0.7174070928237712	0.1426010693052189	-0.3441245112246982	1.420197029713345	-0.8192692339951149	-0.8192692339952529	0.4804468458710018	-0.02990959605911666	-0.3976172829550167	0.1350958809767182	1.957277802236224e-07	1.450111580231537e-07	-1.740754305295761e-06	1.005897649787607e-06	9.593621665424333e-08	2.91336250547561e-07	-1.155105297283731e-06
1.53	-0.1667206584682157	0.02887998557985046	0.8491282920325174	0.809889613027367	-0.2407452139359453	-0.1125743124792772	-0.2777923485438524	0.7093447837619666	0.7093447837619794	0.06877529407842203	0.1745260385632453	0.2321308426783314	0.03351988562354429	0.4178041435179385	0.2034578902354781	0.45497696352053	-2.01701776386524	0.03409168710385987	-0.4369374477648425	0.7417101159368572	-2.115211051737694	-2.115211051737788	0.2122194500311514	6.021452587986845e-05	-0.6116946844411338	-0.1105603790189043	-0.09069442281913175	-0.0318843576737852	0.01133856408843903	-0.3355060958478077	0.1041362170346661	-0.01342037820482877	0.1352726920126739	-30.81045123525129	-7.053347339863986	-2.740228684640884	-4.041334442816004	-4.027845511827342	-637.7712677721262	60.59586377787017	0.1891221772347827	0.4698732670274128	-0.7877457278105958	-0.5698064236187081	0.1148908280645679	-0.3467381926629644	1.34146051354805	-0.6493256888781311	-0.649325688840612	0.5208476927057674	0.01651912786701219	-0.3533884254712846	0.1074178745978161	2.036547633889155e-07	1.488990541501903e-07	-1.834414866020301e-06	1.028859735251747e-06	1.004046875871664e-07	3.114563157990039e-07	-1.214158317125426e-06
1.54	-0.1625339668459819	0.0309376890686813	0.8536377356001073	0.789694125834818	-0.2403981348197106	-0.1169603432042024	-0.2703092075529774	0.6881634305285946	0.6881634305290878	0.07092273099657016	0.1745266428367366	0.2259973885024712	0.03242042008141652	0.4194685554274671	0.2080479164570152	0.446818751359795	-2.021797782895647	0.03532204220703231	-0.4402391751095523	0.7548008087651308	-2.120756450394085	-2.120756450393929	0.2172635508968577	5.658923146679558e-05	-0.6149015431936091	-0.1093159731760338	-0.08379758237678137	-0.03360922471320087	0.01076037969615996	-0.3316216927630684	0.106992800033136	-0.01464515255303197	0.1290274915926477	-32.01812775139393	-5.971021610144288	-2.977556257579005	-4.12352999180667	-4.335354471370064	-633.6420639255448	60.41758542930464	0.1407412133594963	0.4476875358304847	-0.844201492409612	-0.3789957080725277	0.1399801137188508	-0.3064583567144908	1.279468863052251	-0.4558284221277566	-0.4558284221278545	0.4733172686142054	-0.03328259445813344	-0.2837480764309708	0.1538079791278508	2.10776673208419e-07	1.431617636849923e-07	-1.941181270383825e-06	1.019311191167978e-06	1.158611727340415e-07	3.068622997888633e-07	-1.267524849938461e-06
